PathFileType	4	(X/Y/Z)	Patient4_TMGait_0pt8_01_left_01.trc.trc
DataRate	CameraRate	NumFrames	NumMarkers	Units	OrigDataRate	OrigDataStartFrame	OrigNumFrames
86.956521739130	86.956521739130	6	33	mm	86.956521739130	18	       141
Frame#	Time	Sacral			L.Shoulder			Chest			R.Shoulder			Neck			R.ASIS			L.ASIS			R.Thigh.Superior			R.Thigh.Lateral			R.Thigh.Inferior			R.Patella			L.Thigh.Superior			L.Thigh.Lateral			L.Thigh.Inferior			L.Patella			L.Shank.Superior			L.Shank.Lateral			L.Shank.Inferior			R.Shank.Superior			R.Shank.Lateral			R.Shank.Inferior			R.Heel			R.Midfoot.Superior			R.Midfoot.Lateral			R.Toe			L.Heel			L.Midfoot.Lateral			L.Midfoot.Superior			L.Toe			L.Elbow			L.Wrist			R.Elbow			R.Wrist			
		X1	Y1	Z1	X2	Y2	Z2	X3	Y3	Z3	X4	Y4	Z4	X5	Y5	Z5	X6	Y6	Z6	X7	Y7	Z7	X8	Y8	Z8	X9	Y9	Z9	X10	Y10	Z10	X11	Y11	Z11	X12	Y12	Z12	X13	Y13	Z13	X14	Y14	Z14	X15	Y15	Z15	X16	Y16	Z16	X17	Y17	Z17	X18	Y18	Z18	X19	Y19	Z19	X20	Y20	Z20	X21	Y21	Z21	X22	Y22	Z22	X23	Y23	Z23	X24	Y24	Z24	X25	Y25	Z25	X26	Y26	Z26	X27	Y27	Z27	X28	Y28	Z28	X29	Y29	Z29	X30	Y30	Z30	X31	Y31	Z31	X32	Y32	Z32	X33	Y33	Z33	

18	0.335500000000	765.751669086945	1000.730303069101	527.497929066961	944.427555476662	1427.789961018800	348.639244523994	1050.138217923750	1351.341118996629	504.373766886343	977.870146148099	1425.017454784292	682.174101508708	950.053545196499	1485.938439520699	505.830394657165	994.277828305288	939.496709736852	642.695436150044	974.739093259787	949.629078442307	366.408192463377	996.336759473558	727.554010802472	615.284079632007	892.927631264601	632.372434468471	675.688453229263	955.251506850541	567.539231171140	596.675419807968	937.293911267129	482.117133823348	601.111411965245	1047.937322462809	772.154258164419	391.180273578104	1004.933198814814	643.402188823215	307.227014999310	1113.228200123597	589.392844612595	366.689449782017	1145.691258978715	530.920601923928	361.335882853249	1137.265736991699	460.704292761038	351.662694680814	1088.309679498571	322.602936414610	302.286534907455	1191.528082546170	237.249659109121	353.153864080750	901.272926526035	397.253059157911	607.832159767332	819.648889748239	300.771927262886	669.673386109645	852.074811814999	203.060709730586	604.649665149901	706.177199723202	42.871794070621	572.877757560141	878.354887708386	97.392446730506	607.476606375800	790.108163094622	36.214961350878	646.365820068177	998.012591045264	46.072650248741	632.941613719882	1135.027025019688	48.534231445404	395.619464100801	1209.356386654814	57.086830080586	316.003015652093	1268.437034841844	145.773865590867	331.355932806294	1404.948705786831	134.346410051040	308.261636629942	813.005037756764	1102.769285229924	243.021836063905	756.363605157203	850.459536756010	241.933814943953	1104.892826770288	1110.025054761091	794.844254541904	1350.552797053746	1146.676446265331	736.858168865054	
19	0.347000000000	766.231149883254	999.533422905861	526.180840532954	944.195806379514	1426.105658727809	346.264991504071	1050.287455126675	1350.044219502061	501.904605204672	978.336930324934	1424.246481370022	679.697388544011	950.169710177520	1484.549234997111	503.198379416459	994.875226012473	937.816549315428	641.040388639314	975.034083684181	948.070629354478	364.733080800855	995.153005961834	725.523715272981	613.222469707226	891.149806360727	631.209962912236	674.352433805092	952.104263668399	565.834717861849	594.769242749303	933.222049372453	480.410335629200	599.253186755986	1048.463191908170	770.902292557849	389.943190175988	1005.120706805243	641.589117504802	306.764016285149	1113.648686442851	588.169323179002	365.833084316247	1146.028375503825	529.781992345366	360.996322308702	1137.738372088832	459.226034818621	351.693164583986	1088.851295917261	320.947167377763	303.098806864697	1192.223708267207	235.973320022220	354.125754641767	896.249199863263	395.829557441960	606.347564055270	814.039930001282	300.375010141051	668.950832738300	844.622466076579	202.284128703982	603.756328638685	697.020352321095	42.956542029961	572.819961110230	869.250853513426	97.151720251203	607.153656545107	780.904225594387	36.279214834004	646.268738900044	988.864801204539	45.423834252711	632.927848826021	1136.100487924089	47.725218938605	397.461295316174	1210.195402177957	55.901656593501	317.629258761499	1269.412553687643	144.368874724564	332.568983781682	1405.801851968263	132.606187521629	309.213961760722	808.319729008332	1103.445664540131	240.909242595908	749.213228717497	851.660826235869	240.573005064990	1105.214269810228	1109.856486218690	793.041048986547	1347.224234365101	1158.845036370995	732.153457774556	
20	0.358500000000	766.880362256467	998.137329004397	524.630146508831	943.878936338515	1424.311986441271	343.758649418724	1050.419454401016	1348.702860734911	499.290198981583	978.718667575968	1423.347443408388	677.108105811655	950.210520178405	1483.056847179788	500.451096885432	995.672094116633	936.027667055131	639.227267844529	975.623364677930	946.403181681573	362.874384504717	994.327255732887	723.412862317776	611.198363041362	889.684762747315	629.938992264833	672.964654454599	949.422477689811	564.004827252301	592.965308529282	929.557004289859	478.537521429872	597.456741634023	1049.546867861754	769.662029417971	388.668254081125	1005.900693498094	639.704267355653	306.450144042989	1114.561575824265	586.897408901244	365.175855532457	1146.685947094838	528.137794449404	360.783304505667	1138.119191812495	457.055410609602	351.859711651966	1088.234146323458	318.968845856520	304.205786867605	1191.083799373378	233.652754159622	355.441881112721	891.537651696951	394.269987174087	604.891216540215	808.577889412391	299.968165900347	668.185023737459	837.264589396029	201.454727199659	602.920300422807	687.879456188483	43.039912060002	572.772696975494	860.166668480904	96.931614659150	606.846738748376	771.729100516802	36.326228812694	646.168210172760	979.750073642992	44.730356914990	632.927968378223	1134.050616090322	46.454691077474	399.780584168591	1207.585800797008	53.993767469124	319.430643746410	1267.718643376332	141.585181252211	334.026525630229	1403.704977532741	128.410862822238	309.717155996747	804.088615354468	1103.794962754445	238.786797261073	743.074897235214	852.377039579481	239.138063095297	1105.187950308708	1109.306535554099	791.164878370740	1343.097009677995	1169.725942124117	727.580005959031	
21	0.370000000000	767.700454774245	996.572065500591	522.825695350167	943.499971550180	1422.436898249488	341.120286471342	1050.545016446450	1347.344106976943	496.538165768438	979.007393308893	1422.325357975356	674.409415422761	950.179724269415	1481.485584970372	497.593911415878	996.664273839006	934.145167518077	637.264179672163	976.518993871035	944.644667540129	360.841220303034	993.843393607164	721.229978006291	609.267463037052	888.460104425149	628.584120344231	671.510880284405	947.170419201859	562.055787637010	591.285870583582	926.263913764791	476.500146309735	595.728036656187	1051.127004490693	768.374176868056	387.360233900939	1007.134265227799	637.739902189457	306.256981166726	1115.842511580728	585.522382364098	364.698770577214	1147.513584594515	525.989107117835	360.728527468849	1138.362176658985	454.266830775550	352.145534325647	1086.641339730261	316.664161907518	305.516809177463	1188.419016204723	230.424548506253	357.035239128007	887.102891288523	392.598404416966	603.465349611284	803.221579981759	299.573806517753	667.367564205043	829.979512072829	200.594825402581	602.140972330385	678.744195157951	43.139624789418	572.741199187470	851.100857956142	96.741775079173	606.562841121452	762.580473073875	36.361258622124	646.068436284377	970.671664406856	44.007736261915	632.947530064426	1129.337876600221	44.834106936687	402.387529995347	1202.105270935720	51.502619384935	321.315010661830	1263.863851296015	137.575913626270	335.736489002897	1399.214101994397	121.958792377739	309.987437195207	800.385571474869	1103.781298123264	236.666889090919	737.961320914840	852.593950550028	237.612100610693	1104.811969149505	1108.383700652382	789.227487179102	1338.314482255396	1179.277343674979	723.147645541791	
22	0.381500000000	768.689525555681	994.882992132211	520.756081147412	943.093383891000	1420.516504574278	338.349822925197	1050.681690992364	1346.000831399265	493.659247691124	979.206982732270	1421.198698041441	671.605127266208	950.091418994775	1479.870699057243	494.628246726757	997.839510994306	932.191828558656	635.158915364231	977.718212715884	942.830007255306	358.650821632330	993.673280819861	718.995872791925	607.454003704242	887.415695428372	627.177622200191	669.968207625819	945.313582438322	560.008235059492	589.729405644146	923.323814553629	474.305057188976	594.065973398257	1053.123403782050	766.995413584000	386.014529008105	1008.664592672825	635.711021779264	306.137346635273	1117.367078230875	584.016944727149	364.353544689891	1148.372107060143	523.395203377858	360.829307281698	1138.441195220124	450.995353879753	352.508626855966	1084.312505264085	314.088597297766	306.920810450239	1184.609202780504	226.514363732237	358.810909062778	882.919221521204	390.848138749899	602.068350007527	797.942595368175	299.223893326115	666.490479361431	822.755557295660	199.737046482582	601.415751936304	669.604508683465	43.294160738953	572.734050289353	842.059440164533	96.590816402314	606.310563426358	753.455626410776	36.398576931679	645.975995455748	961.631635288818	43.273520444662	632.988718471095	1122.534374101851	43.035913192178	405.083618001529	1194.445814157114	48.648592583987	323.187053247003	1258.424392879386	132.614949606760	337.682290284963	1392.954678144282	113.642218995108	310.229884434166	797.276821528889	1103.384799814104	234.557395620133	733.890080880839	852.313419466316	235.977468854615	1104.071018789094	1107.102562451402	787.237614850582	1333.013728568154	1187.481640337682	718.864161845696	
23	0.393000000000	769.841398160021	993.129629612041	518.422837331758	942.701519632582	1418.596213575198	335.448895418072	1050.851728711266	1344.711556813882	490.667266427988	979.334301120024	1420.001799216457	668.701612931588	949.970180564800	1478.259119375448	491.554086239049	999.175664235143	930.201415135607	632.915727028477	979.198825668149	941.013060431041	356.324454930215	993.781826821395	716.747535780377	605.745787200496	886.517121573767	625.758112316699	668.307959980655	943.831914912932	557.898610152001	588.271500303403	920.747768116427	471.965329937014	592.466945103912	1055.442336825497	765.515025914446	384.618426821590	1010.345380848227	633.665434732292	306.025077442078	1119.027687292679	582.395988721308	364.070466960528	1149.158876153437	520.477200769331	361.046266697550	1138.360716549659	447.427768694737	352.887225196619	1081.524334639332	311.353693276520	308.289142622655	1180.060857791636	222.207283054674	360.655119081371	878.983353334060	389.059974413952	600.698174006573	792.735615110012	298.961411955642	665.549273245885	815.599092811558	198.924931130636	600.744067824962	660.454430540666	43.569418664598	572.764020401973	833.060010423240	96.486153460627	606.101419675177	744.353173094278	36.464923024213	645.900513468970	952.630321174650	42.545766685707	633.049811283349	1114.260640575096	41.254722423542	407.683889778377	1185.333472025601	45.691605093678	324.955351352909	1251.970240870322	127.063036801938	339.814357508450	1385.546785177557	104.016089840071	310.598051461241	794.822770985312	1102.603529376191	232.461757533447	730.883406593296	851.552731621932	234.216463676143	1102.935356429451	1105.485276270157	785.200988192826	1327.322166200203	1194.339489296753	714.736261864497	
